<svg width="50" height="50" viewBox="0 0 50 50" fill="none" xmlns="http://www.w3.org/2000/svg">
<rect x="4" y="4" width="42" height="42" rx="21" fill="#756FCC"/>
<rect x="2" y="2" width="46" height="46" rx="23" stroke="#756FCC" stroke-opacity="0.3" stroke-width="4"/>
<mask id="mask0_3397_31786" style="mask-type:alpha" maskUnits="userSpaceOnUse" x="13" y="13" width="24" height="24">
<rect x="13" y="13" width="24" height="24" fill="#D9D9D9"/>
</mask>
<g mask="url(#mask0_3397_31786)">
<path d="M24 31H26V30H27C27.2833 30 27.5208 29.9042 27.7125 29.7125C27.9042 29.5208 28 29.2833 28 29V26C28 25.7167 27.9042 25.4792 27.7125 25.2875C27.5208 25.0958 27.2833 25 27 25H24V24H28V22H26V21H24V22H23C22.7167 22 22.4792 22.0958 22.2875 22.2875C22.0958 22.4792 22 22.7167 22 23V26C22 26.2833 22.0958 26.5208 22.2875 26.7125C22.4792 26.9042 22.7167 27 23 27H26V28H22V30H24V31ZM19 35C18.45 35 17.9792 34.8042 17.5875 34.4125C17.1958 34.0208 17 33.55 17 33V17C17 16.45 17.1958 15.9792 17.5875 15.5875C17.9792 15.1958 18.45 15 19 15H27L33 21V33C33 33.55 32.8042 34.0208 32.4125 34.4125C32.0208 34.8042 31.55 35 31 35H19ZM19 33H31V21.85L26.15 17H19V33Z" fill="white"/>
</g>
</svg>
